<?xml version="1.0" encoding="UTF-8"?>
<svg width="108px" height="9px" viewBox="0 0 108 9" version="1.1" xmlns="http://www.w3.org/2000/svg" xmlns:xlink="http://www.w3.org/1999/xlink">
    <!-- Generator: Sketch 60.1 (88133) - https://sketch.com -->
    <title>Group 28</title>
    <desc>Created with Sketch.</desc>
    <defs>
        <polygon id="path-1" points="0 0.2118 5.0128 0.2118 5.0128 5.2128 0 5.2128"></polygon>
        <polygon id="path-3" points="0.2667 0.6042 6.0957 0.6042 6.0957 9 0.2667 9"></polygon>
        <polygon id="path-5" points="0.8663 0.6042 6.695 0.6042 6.695 9 0.8663 9"></polygon>
    </defs>
    <g id="Page-1" stroke="none" stroke-width="1" fill="none" fill-rule="evenodd">
        <g id="Group-28" transform="translate(0.000000, -1.000000)">
            <g id="Group-3" transform="translate(0.000000, 2.407710)">
                <mask id="mask-2" fill="white">
                    <use xlink:href="#path-1"></use>
                </mask>
                <g id="Clip-2"></g>
                <path d="M2.1108,3.1138 L0.2278,3.1138 C0.1078,3.1138 -0.0002,3.0058 -0.0002,2.8858 L-0.0002,2.5508 C-0.0002,2.4298 0.1078,2.3218 0.2278,2.3218 L2.1108,2.3218 L2.1108,0.4268 C2.1108,0.3078 2.2188,0.2118 2.3388,0.2118 L2.6738,0.2118 C2.7948,0.2118 2.9028,0.3078 2.9028,0.4268 L2.9028,2.3218 L4.7978,2.3218 C4.9178,2.3218 5.0128,2.4298 5.0128,2.5508 L5.0128,2.8858 C5.0128,3.0058 4.9178,3.1138 4.7978,3.1138 L2.9028,3.1138 L2.9028,4.9968 C2.9028,5.1168 2.7948,5.2128 2.6738,5.2128 L2.3388,5.2128 C2.2188,5.2128 2.1108,5.1168 2.1108,4.9968 L2.1108,3.1138 Z" id="Fill-1" fill="#1D1D1B" mask="url(#mask-2)"></path>
            </g>
            <path d="M7.416,8.05221 L7.74,7.77621 C7.872,7.68021 7.968,7.70421 8.063,7.83621 C8.171,7.96821 8.819,8.66421 9.851,8.66421 C10.762,8.66421 11.578,8.11221 11.578,7.16421 C11.578,6.34921 10.942,5.59421 9.455,5.59421 L8.783,5.59421 C8.651,5.59421 8.555,5.52121 8.555,5.32921 L8.555,5.04221 C8.555,4.85021 8.615,4.77821 8.807,4.77821 L9.467,4.77821 C10.75,4.77821 11.374,4.11821 11.374,3.32621 C11.374,2.37921 10.654,1.80321 9.803,1.80321 C8.987,1.80321 8.496,2.28321 8.231,2.58321 C8.16,2.66721 8.04,2.71521 7.92,2.60721 L7.632,2.37921 C7.536,2.29521 7.548,2.15121 7.632,2.06721 C7.632,2.06721 8.496,1.01221 9.803,1.01221 C11.254,1.01221 12.273,1.86421 12.273,3.20721 C12.273,4.13021 11.578,4.85021 11.038,5.10221 L11.038,5.13721 C11.602,5.37821 12.477,6.04921 12.477,7.08021 C12.477,8.38821 11.47,9.40721 9.815,9.40721 C8.339,9.40721 7.668,8.64021 7.404,8.34021 C7.332,8.25621 7.32,8.12421 7.416,8.05221" id="Fill-4" fill="#1D1D1B"></path>
            <path d="M15.2397,8.05221 L15.5637,7.77621 C15.6957,7.68021 15.7917,7.70421 15.8867,7.83621 C15.9947,7.96821 16.6427,8.66421 17.6747,8.66421 C18.5857,8.66421 19.4017,8.11221 19.4017,7.16421 C19.4017,6.34921 18.7657,5.59421 17.2787,5.59421 L16.6067,5.59421 C16.4747,5.59421 16.3787,5.52121 16.3787,5.32921 L16.3787,5.04221 C16.3787,4.85021 16.4387,4.77821 16.6307,4.77821 L17.2907,4.77821 C18.5737,4.77821 19.1977,4.11821 19.1977,3.32621 C19.1977,2.37921 18.4777,1.80321 17.6267,1.80321 C16.8107,1.80321 16.3197,2.28321 16.0547,2.58321 C15.9837,2.66721 15.8637,2.71521 15.7437,2.60721 L15.4557,2.37921 C15.3597,2.29521 15.3717,2.15121 15.4557,2.06721 C15.4557,2.06721 16.3197,1.01221 17.6267,1.01221 C19.0777,1.01221 20.0967,1.86421 20.0967,3.20721 C20.0967,4.13021 19.4017,4.85021 18.8617,5.10221 L18.8617,5.13721 C19.4257,5.37821 20.3007,6.04921 20.3007,7.08021 C20.3007,8.38821 19.2937,9.40721 17.6377,9.40721 C16.1627,9.40721 15.4917,8.64021 15.2277,8.34021 C15.1557,8.25621 15.1437,8.12421 15.2397,8.05221" id="Fill-6" fill="#1D1D1B"></path>
            <path d="M28.3789,2.61911 L27.5149,3.29111 C27.4199,3.36311 27.3229,3.37511 27.2389,3.27911 L27.0119,3.02711 C26.9279,2.93111 26.9759,2.82311 27.0359,2.76311 L28.7149,1.13211 L29.0389,1.13211 C29.1579,1.13211 29.2539,1.24011 29.2539,1.36011 L29.2539,9.05911 C29.2539,9.18011 29.1579,9.28711 29.0389,9.28711 L28.6069,9.28711 C28.4749,9.28711 28.3789,9.18011 28.3789,9.05911 L28.3789,2.61911 Z" id="Fill-8" fill="#1D1D1B"></path>
            <path d="M37.1392,8.92771 L40.4852,1.93571 L36.5632,1.93571 C36.4442,1.93571 36.3352,1.82771 36.3352,1.70771 L36.3352,1.35971 C36.3352,1.24071 36.4442,1.13271 36.5632,1.13271 L41.3852,1.13271 C41.5052,1.13271 41.6132,1.24071 41.6132,1.35971 L41.6132,1.44371 L38.1112,8.97571 C38.0632,9.08371 37.9432,9.28771 37.7152,9.28771 L37.3672,9.28771 C37.2472,9.28771 37.1392,9.17971 37.1392,9.05971 L37.1392,8.92771 Z" id="Fill-10" fill="#1D1D1B"></path>
            <path d="M43.9556,8.00441 C44.0516,7.92041 44.1356,7.82441 44.2306,7.74041 C44.3396,7.64441 44.4346,7.62041 44.5316,7.75241 C44.6506,7.92041 45.2266,8.64041 46.3066,8.64041 C47.4576,8.64041 48.1886,7.62041 48.1886,6.67241 C48.1886,5.73741 47.5896,4.94541 46.3066,4.94541 L44.4826,4.94541 C44.2436,4.94541 44.1116,4.71841 44.1116,4.52641 L44.1116,1.35941 C44.1116,1.24041 44.2066,1.13241 44.3396,1.13241 L47.9606,1.13241 C48.0936,1.13241 48.1886,1.24041 48.1886,1.35941 L48.1886,1.70741 C48.1886,1.82741 48.0936,1.93541 47.9606,1.93541 L44.9146,1.93541 L44.9146,4.14241 L46.3066,4.14241 C48.1176,4.14241 49.0766,5.08941 49.0766,6.66141 C49.0766,8.16041 47.9136,9.40741 46.2936,9.40741 C44.9626,9.40741 44.2796,8.77241 43.9796,8.41241 C43.8236,8.23241 43.8116,8.14841 43.9556,8.00441" id="Fill-12" fill="#1D1D1B"></path>
            <path d="M55.895,8.00441 C55.991,7.92041 56.075,7.82441 56.17,7.74041 C56.279,7.64441 56.374,7.62041 56.471,7.75241 C56.59,7.92041 57.166,8.64041 58.246,8.64041 C59.397,8.64041 60.128,7.62041 60.128,6.67241 C60.128,5.73741 59.529,4.94541 58.246,4.94541 L56.422,4.94541 C56.183,4.94541 56.051,4.71841 56.051,4.52641 L56.051,1.35941 C56.051,1.24041 56.146,1.13241 56.279,1.13241 L59.9,1.13241 C60.033,1.13241 60.128,1.24041 60.128,1.35941 L60.128,1.70741 C60.128,1.82741 60.033,1.93541 59.9,1.93541 L56.854,1.93541 L56.854,4.14241 L58.246,4.14241 C60.057,4.14241 61.016,5.08941 61.016,6.66141 C61.016,8.16041 59.853,9.40741 58.233,9.40741 C56.902,9.40741 56.219,8.77241 55.919,8.41241 C55.763,8.23241 55.751,8.14841 55.895,8.00441" id="Fill-14" fill="#1D1D1B"></path>
            <path d="M64.6543,2.61911 L63.7903,3.29111 C63.6953,3.36311 63.5983,3.37511 63.5143,3.27911 L63.2873,3.02711 C63.2033,2.93111 63.2513,2.82311 63.3113,2.76311 L64.9903,1.13211 L65.3143,1.13211 C65.4333,1.13211 65.5293,1.24011 65.5293,1.36011 L65.5293,9.05911 C65.5293,9.18011 65.4333,9.28711 65.3143,9.28711 L64.8823,9.28711 C64.7503,9.28711 64.6543,9.18011 64.6543,9.05911 L64.6543,2.61911 Z" id="Fill-16" fill="#1D1D1B"></path>
            <path d="M73.4146,8.92771 L76.7606,1.93571 L72.8386,1.93571 C72.7196,1.93571 72.6106,1.82771 72.6106,1.70771 L72.6106,1.35971 C72.6106,1.24071 72.7196,1.13271 72.8386,1.13271 L77.6606,1.13271 C77.7806,1.13271 77.8886,1.24071 77.8886,1.35971 L77.8886,1.44371 L74.3866,8.97571 C74.3386,9.08371 74.2186,9.28771 73.9906,9.28771 L73.6426,9.28771 C73.5226,9.28771 73.4146,9.17971 73.4146,9.05971 L73.4146,8.92771 Z" id="Fill-18" fill="#1D1D1B"></path>
            <g id="Group-22" transform="translate(80.000000, 0.407710)">
                <mask id="mask-4" fill="white">
                    <use xlink:href="#path-3"></use>
                </mask>
                <g id="Clip-21"></g>
                <path d="M5.2437,4.8022 C5.2437,2.6312 4.5007,1.3842 3.1807,1.3842 C1.8617,1.3842 1.1187,2.6312 1.1187,4.8022 C1.1187,6.9972 1.8617,8.2202 3.1807,8.2202 C4.5007,8.2202 5.2437,6.9972 5.2437,4.8022 M0.2667,4.8022 C0.2667,2.1762 1.3227,0.6042 3.1807,0.6042 C5.0397,0.6042 6.0957,2.1762 6.0957,4.8022 C6.0957,7.4282 5.0397,9.0002 3.1807,9.0002 C1.3227,9.0002 0.2667,7.4282 0.2667,4.8022" id="Fill-20" fill="#1D1D1B" mask="url(#mask-4)"></path>
            </g>
            <path d="M97.1006,6.69681 L97.1006,2.52381 L93.7186,6.69681 L97.1006,6.69681 Z M92.7106,7.21281 L92.7106,6.76881 L97.2566,1.07181 C97.2926,1.03581 97.3286,0.99981 97.4366,0.99981 L97.6766,0.99981 C97.7966,0.99981 97.9046,1.09581 97.9046,1.22781 L97.9156,6.70881 L98.8876,6.70881 C99.0196,6.70881 99.1156,6.80481 99.1156,6.92481 L99.1156,7.18881 C99.1156,7.30881 99.0196,7.41681 98.8876,7.41681 L97.9156,7.41681 L97.9156,9.05981 C97.9156,9.17981 97.8086,9.28781 97.6876,9.28781 L97.2806,9.28781 C97.1606,9.28781 97.0526,9.17981 97.0526,9.05981 L97.0526,7.44081 L92.9386,7.44081 C92.8076,7.44081 92.7106,7.33281 92.7106,7.21281 L92.7106,7.21281 Z" id="Fill-23" fill="#1D1D1B"></path>
            <g id="Group-27" transform="translate(101.000000, 0.407710)">
                <mask id="mask-6" fill="white">
                    <use xlink:href="#path-5"></use>
                </mask>
                <g id="Clip-26"></g>
                <path d="M5.8433,4.8022 C5.8433,2.6312 5.1003,1.3842 3.7803,1.3842 C2.4613,1.3842 1.7183,2.6312 1.7183,4.8022 C1.7183,6.9972 2.4613,8.2202 3.7803,8.2202 C5.1003,8.2202 5.8433,6.9972 5.8433,4.8022 M0.8663,4.8022 C0.8663,2.1762 1.9223,0.6042 3.7803,0.6042 C5.6393,0.6042 6.6953,2.1762 6.6953,4.8022 C6.6953,7.4282 5.6393,9.0002 3.7803,9.0002 C1.9223,9.0002 0.8663,7.4282 0.8663,4.8022" id="Fill-25" fill="#1D1D1B" mask="url(#mask-6)"></path>
            </g>
        </g>
    </g>
</svg>