<?xml version="1.0" encoding="UTF-8"?>
<svg width="101px" height="9px" viewBox="0 0 101 9" version="1.1" xmlns="http://www.w3.org/2000/svg" xmlns:xlink="http://www.w3.org/1999/xlink">
    <!-- Generator: Sketch 60.1 (88133) - https://sketch.com -->
    <title>Group 28</title>
    <desc>Created with Sketch.</desc>
    <defs>
        <polygon id="path-1" points="0 0.2118 5.0128 0.2118 5.0128 5.2128 0 5.2128"></polygon>
        <polygon id="path-3" points="0.8828 0.6042 6.7118 0.6042 6.7118 9 0.8828 9"></polygon>
        <polygon id="path-5" points="0.8035 0.432 6.2485 0.432 6.2485 9 0.8035 9"></polygon>
    </defs>
    <g id="Page-1" stroke="none" stroke-width="1" fill="none" fill-rule="evenodd">
        <g id="Group-28" transform="translate(0.000000, -1.000000)">
            <g id="Group-3" transform="translate(0.000000, 2.568180)">
                <mask id="mask-2" fill="white">
                    <use xlink:href="#path-1"></use>
                </mask>
                <g id="Clip-2"></g>
                <path d="M2.1108,3.1138 L0.2278,3.1138 C0.1078,3.1138 -0.0002,3.0058 -0.0002,2.8858 L-0.0002,2.5508 C-0.0002,2.4298 0.1078,2.3218 0.2278,2.3218 L2.1108,2.3218 L2.1108,0.4268 C2.1108,0.3078 2.2188,0.2118 2.3388,0.2118 L2.6738,0.2118 C2.7948,0.2118 2.9028,0.3078 2.9028,0.4268 L2.9028,2.3218 L4.7978,2.3218 C4.9178,2.3218 5.0128,2.4298 5.0128,2.5508 L5.0128,2.8858 C5.0128,3.0058 4.9178,3.1138 4.7978,3.1138 L2.9028,3.1138 L2.9028,4.9968 C2.9028,5.1168 2.7948,5.2128 2.6738,5.2128 L2.3388,5.2128 C2.2188,5.2128 2.1108,5.1168 2.1108,4.9968 L2.1108,3.1138 Z" id="Fill-1" fill="#1D1D1B" mask="url(#mask-2)"></path>
            </g>
            <path d="M7.2363,8.86018 C8.2193,7.80518 9.1913,6.73718 10.1743,5.68218 C10.9903,4.79518 11.3853,4.07518 11.3853,3.51118 C11.3853,2.82818 10.9423,1.98818 9.7063,1.98818 C8.9633,1.98818 8.3753,2.49218 8.0043,2.88718 C7.9073,2.98418 7.7763,2.98418 7.6793,2.88718 L7.4403,2.66018 C7.3683,2.57618 7.3443,2.44418 7.4283,2.34818 C7.4283,2.34818 8.2793,1.17318 9.7063,1.17318 C11.4223,1.17318 12.2973,2.26418 12.2973,3.48718 C12.2973,4.54318 11.6253,5.32218 10.7983,6.21018 C10.0303,7.02518 9.2633,7.85318 8.4953,8.66818 L12.0213,8.66818 C12.1413,8.66818 12.2493,8.77618 12.2493,8.89618 L12.2493,9.22018 C12.2493,9.34018 12.1413,9.44818 12.0213,9.44818 L7.4643,9.44818 C7.3323,9.44818 7.2363,9.34018 7.2363,9.22018 L7.2363,8.86018 Z" id="Fill-4" fill="#1D1D1B"></path>
            <path d="M14.9043,8.86018 C15.8873,7.80518 16.8593,6.73718 17.8423,5.68218 C18.6583,4.79518 19.0533,4.07518 19.0533,3.51118 C19.0533,2.82818 18.6103,1.98818 17.3743,1.98818 C16.6313,1.98818 16.0433,2.49218 15.6723,2.88718 C15.5753,2.98418 15.4443,2.98418 15.3473,2.88718 L15.1083,2.66018 C15.0363,2.57618 15.0123,2.44418 15.0963,2.34818 C15.0963,2.34818 15.9473,1.17318 17.3743,1.17318 C19.0903,1.17318 19.9653,2.26418 19.9653,3.48718 C19.9653,4.54318 19.2933,5.32218 18.4663,6.21018 C17.6983,7.02518 16.9313,7.85318 16.1633,8.66818 L19.6893,8.66818 C19.8093,8.66818 19.9173,8.77618 19.9173,8.89618 L19.9173,9.22018 C19.9173,9.34018 19.8093,9.44818 19.6893,9.44818 L15.1323,9.44818 C15.0003,9.44818 14.9043,9.34018 14.9043,9.22018 L14.9043,8.86018 Z" id="Fill-6" fill="#1D1D1B"></path>
            <path d="M22.8481,8.16488 C22.9441,8.08088 23.0281,7.98488 23.1231,7.90088 C23.2321,7.80488 23.3271,7.78088 23.4241,7.91288 C23.5431,8.08088 24.1191,8.80088 25.1991,8.80088 C26.3501,8.80088 27.0811,7.78088 27.0811,6.83288 C27.0811,5.89788 26.4821,5.10588 25.1991,5.10588 L23.3751,5.10588 C23.1361,5.10588 23.0041,4.87888 23.0041,4.68688 L23.0041,1.51988 C23.0041,1.40088 23.0991,1.29288 23.2321,1.29288 L26.8531,1.29288 C26.9861,1.29288 27.0811,1.40088 27.0811,1.51988 L27.0811,1.86788 C27.0811,1.98788 26.9861,2.09588 26.8531,2.09588 L23.8071,2.09588 L23.8071,4.30288 L25.1991,4.30288 C27.0101,4.30288 27.9691,5.24988 27.9691,6.82188 C27.9691,8.32088 26.8061,9.56788 25.1861,9.56788 C23.8551,9.56788 23.1721,8.93288 22.8721,8.57288 C22.7161,8.39288 22.7041,8.30888 22.8481,8.16488" id="Fill-8" fill="#1D1D1B"></path>
            <g id="Group-12" transform="translate(34.000000, 0.568180)">
                <mask id="mask-4" fill="white">
                    <use xlink:href="#path-3"></use>
                </mask>
                <g id="Clip-11"></g>
                <path d="M5.8608,4.8022 C5.8608,2.6312 5.1168,1.3842 3.7978,1.3842 C2.4788,1.3842 1.7348,2.6312 1.7348,4.8022 C1.7348,6.9972 2.4788,8.2202 3.7978,8.2202 C5.1168,8.2202 5.8608,6.9972 5.8608,4.8022 M0.8828,4.8022 C0.8828,2.1762 1.9388,0.6042 3.7978,0.6042 C5.6568,0.6042 6.7118,2.1762 6.7118,4.8022 C6.7118,7.4282 5.6568,9.0002 3.7978,9.0002 C1.9388,9.0002 0.8828,7.4282 0.8828,4.8022" id="Fill-10" fill="#1D1D1B" mask="url(#mask-4)"></path>
            </g>
            <path d="M44.0269,9.08818 L47.3729,2.09618 L43.4509,2.09618 C43.3319,2.09618 43.2229,1.98818 43.2229,1.86818 L43.2229,1.52018 C43.2229,1.40118 43.3319,1.29318 43.4509,1.29318 L48.2729,1.29318 C48.3929,1.29318 48.5009,1.40118 48.5009,1.52018 L48.5009,1.60418 L44.9989,9.13618 C44.9509,9.24418 44.8309,9.44818 44.6029,9.44818 L44.2549,9.44818 C44.1349,9.44818 44.0269,9.34018 44.0269,9.22018 L44.0269,9.08818 Z" id="Fill-13" fill="#1D1D1B"></path>
            <g id="Group-17" transform="translate(54.000000, 0.568180)">
                <mask id="mask-6" fill="white">
                    <use xlink:href="#path-5"></use>
                </mask>
                <g id="Clip-16"></g>
                <path d="M5.3965,6.3013 C5.3965,5.2583 4.5935,4.4303 3.5855,4.4303 C2.4705,4.4303 1.6905,5.2103 1.6905,5.2103 C1.4865,6.4093 1.9545,8.2083 3.5975,8.2083 C4.6045,8.2083 5.3965,7.3323 5.3965,6.3013 M4.7495,0.4483 C4.8685,0.4003 4.9645,0.4603 5.0125,0.5683 L5.1445,0.8563 C5.2045,1.0003 5.1565,1.1323 4.9285,1.2043 C4.3895,1.3843 2.2665,2.5713 1.8465,4.1903 C1.8465,4.1903 2.6385,3.6513 3.6695,3.6513 C5.0245,3.6513 6.2485,4.6583 6.2485,6.2533 C6.2485,7.7643 5.0365,9.0003 3.5975,9.0003 C1.6545,9.0003 0.8035,7.4883 0.8035,5.5813 C0.8035,2.3913 3.5375,0.9283 4.7495,0.4483" id="Fill-15" fill="#1D1D1B" mask="url(#mask-6)"></path>
            </g>
            <path d="M62.6992,8.21268 L63.0232,7.93668 C63.1552,7.84068 63.2512,7.86468 63.3462,7.99668 C63.4542,8.12868 64.1022,8.82468 65.1342,8.82468 C66.0452,8.82468 66.8612,8.27268 66.8612,7.32468 C66.8612,6.50968 66.2252,5.75468 64.7382,5.75468 L64.0662,5.75468 C63.9342,5.75468 63.8382,5.68168 63.8382,5.48968 L63.8382,5.20268 C63.8382,5.01068 63.8982,4.93868 64.0902,4.93868 L64.7502,4.93868 C66.0332,4.93868 66.6572,4.27868 66.6572,3.48668 C66.6572,2.53968 65.9372,1.96368 65.0862,1.96368 C64.2702,1.96368 63.7792,2.44368 63.5142,2.74368 C63.4432,2.82768 63.3232,2.87568 63.2032,2.76768 L62.9152,2.53968 C62.8192,2.45568 62.8312,2.31168 62.9152,2.22768 C62.9152,2.22768 63.7792,1.17268 65.0862,1.17268 C66.5372,1.17268 67.5562,2.02468 67.5562,3.36768 C67.5562,4.29068 66.8612,5.01068 66.3212,5.26268 L66.3212,5.29768 C66.8852,5.53868 67.7602,6.20968 67.7602,7.24068 C67.7602,8.54868 66.7532,9.56768 65.0982,9.56768 C63.6222,9.56768 62.9512,8.80068 62.6872,8.50068 C62.6152,8.41668 62.6032,8.28468 62.6992,8.21268" id="Fill-18" fill="#1D1D1B"></path>
            <path d="M75.1426,9.08818 L78.4886,2.09618 L74.5666,2.09618 C74.4476,2.09618 74.3396,1.98818 74.3396,1.86818 L74.3396,1.52018 C74.3396,1.40118 74.4476,1.29318 74.5666,1.29318 L79.3886,1.29318 C79.5086,1.29318 79.6166,1.40118 79.6166,1.52018 L79.6166,1.60418 L76.1146,9.13618 C76.0656,9.24418 75.9466,9.44818 75.7186,9.44818 L75.3706,9.44818 C75.2506,9.44818 75.1426,9.34018 75.1426,9.22018 L75.1426,9.08818 Z" id="Fill-20" fill="#1D1D1B"></path>
            <path d="M82.9663,2.77958 L82.1023,3.45158 C82.0073,3.52358 81.9103,3.53558 81.8263,3.43958 L81.5993,3.18758 C81.5153,3.09158 81.5633,2.98358 81.6233,2.92358 L83.3023,1.29258 L83.6263,1.29258 C83.7453,1.29258 83.8413,1.40058 83.8413,1.52058 L83.8413,9.21958 C83.8413,9.34058 83.7453,9.44758 83.6263,9.44758 L83.1943,9.44758 C83.0623,9.44758 82.9663,9.34058 82.9663,9.21958 L82.9663,2.77958 Z" id="Fill-22" fill="#1D1D1B"></path>
            <path d="M91.7266,9.08818 L95.0726,2.09618 L91.1506,2.09618 C91.0316,2.09618 90.9236,1.98818 90.9236,1.86818 L90.9236,1.52018 C90.9236,1.40118 91.0316,1.29318 91.1506,1.29318 L95.9726,1.29318 C96.0926,1.29318 96.2006,1.40118 96.2006,1.52018 L96.2006,1.60418 L92.6986,9.13618 C92.6496,9.24418 92.5306,9.44818 92.3026,9.44818 L91.9546,9.44818 C91.8346,9.44818 91.7266,9.34018 91.7266,9.22018 L91.7266,9.08818 Z" id="Fill-24" fill="#1D1D1B"></path>
            <path d="M99.5503,2.77958 L98.6863,3.45158 C98.5913,3.52358 98.4943,3.53558 98.4103,3.43958 L98.1833,3.18758 C98.0993,3.09158 98.1473,2.98358 98.2073,2.92358 L99.8863,1.29258 L100.2103,1.29258 C100.3293,1.29258 100.4253,1.40058 100.4253,1.52058 L100.4253,9.21958 C100.4253,9.34058 100.3293,9.44758 100.2103,9.44758 L99.7783,9.44758 C99.6463,9.44758 99.5503,9.34058 99.5503,9.21958 L99.5503,2.77958 Z" id="Fill-26" fill="#1D1D1B"></path>
        </g>
    </g>
</svg>