<?xml version="1.0" encoding="UTF-8"?>
<svg width="112px" height="9px" viewBox="0 0 112 9" version="1.1" xmlns="http://www.w3.org/2000/svg" xmlns:xlink="http://www.w3.org/1999/xlink">
    <!-- Generator: Sketch 60.1 (88133) - https://sketch.com -->
    <title>Group 32</title>
    <desc>Created with Sketch.</desc>
    <defs>
        <polygon id="path-1" points="0 0.2118 5.0128 0.2118 5.0128 5.2128 0 5.2128"></polygon>
        <polygon id="path-3" points="0.5069 0.6042 6.3359 0.6042 6.3359 9 0.5069 9"></polygon>
        <polygon id="path-5" points="0.5186 0.6042 6.3476 0.6042 6.3476 9 0.5186 9"></polygon>
        <polygon id="path-7" points="0.6189 0.432 6.0639 0.432 6.0639 9 0.6189 9"></polygon>
        <polygon id="path-9" points="0.8145 0.6042 6.643 0.6042 6.643 9 0.8145 9"></polygon>
    </defs>
    <g id="Page-1" stroke="none" stroke-width="1" fill="none" fill-rule="evenodd">
        <g id="Group-32" transform="translate(0.000000, -1.000000)">
            <g id="Group-3" transform="translate(0.000000, 2.568180)">
                <mask id="mask-2" fill="white">
                    <use xlink:href="#path-1"></use>
                </mask>
                <g id="Clip-2"></g>
                <path d="M2.1108,3.1138 L0.2278,3.1138 C0.1078,3.1138 -0.0002,3.0058 -0.0002,2.8858 L-0.0002,2.5508 C-0.0002,2.4298 0.1078,2.3218 0.2278,2.3218 L2.1108,2.3218 L2.1108,0.4268 C2.1108,0.3078 2.2188,0.2118 2.3388,0.2118 L2.6738,0.2118 C2.7948,0.2118 2.9028,0.3078 2.9028,0.4268 L2.9028,2.3218 L4.7978,2.3218 C4.9178,2.3218 5.0128,2.4298 5.0128,2.5508 L5.0128,2.8858 C5.0128,3.0058 4.9178,3.1138 4.7978,3.1138 L2.9028,3.1138 L2.9028,4.9968 C2.9028,5.1168 2.7948,5.2128 2.6738,5.2128 L2.3388,5.2128 C2.2188,5.2128 2.1108,5.1168 2.1108,4.9968 L2.1108,3.1138 Z" id="Fill-1" fill="#1D1D1B" mask="url(#mask-2)"></path>
            </g>
            <path d="M7.2363,8.86018 C8.2193,7.80518 9.1913,6.73718 10.1743,5.68218 C10.9903,4.79518 11.3853,4.07518 11.3853,3.51118 C11.3853,2.82818 10.9423,1.98818 9.7063,1.98818 C8.9633,1.98818 8.3753,2.49218 8.0043,2.88718 C7.9073,2.98418 7.7763,2.98418 7.6793,2.88718 L7.4403,2.66018 C7.3683,2.57618 7.3443,2.44418 7.4283,2.34818 C7.4283,2.34818 8.2793,1.17318 9.7063,1.17318 C11.4223,1.17318 12.2973,2.26418 12.2973,3.48718 C12.2973,4.54318 11.6253,5.32218 10.7983,6.21018 C10.0303,7.02518 9.2633,7.85318 8.4953,8.66818 L12.0213,8.66818 C12.1413,8.66818 12.2493,8.77618 12.2493,8.89618 L12.2493,9.22018 C12.2493,9.34018 12.1413,9.44818 12.0213,9.44818 L7.4643,9.44818 C7.3323,9.44818 7.2363,9.34018 7.2363,9.22018 L7.2363,8.86018 Z" id="Fill-4" fill="#1D1D1B"></path>
            <path d="M15.4917,9.08818 L18.8377,2.09618 L14.9157,2.09618 C14.7967,2.09618 14.6877,1.98818 14.6877,1.86818 L14.6877,1.52018 C14.6877,1.40118 14.7967,1.29318 14.9157,1.29318 L19.7377,1.29318 C19.8577,1.29318 19.9657,1.40118 19.9657,1.52018 L19.9657,1.60418 L16.4637,9.13618 C16.4157,9.24418 16.2957,9.44818 16.0677,9.44818 L15.7197,9.44818 C15.5997,9.44818 15.4917,9.34018 15.4917,9.22018 L15.4917,9.08818 Z" id="Fill-6" fill="#1D1D1B"></path>
            <g id="Group-10" transform="translate(26.000000, 0.568180)">
                <mask id="mask-4" fill="white">
                    <use xlink:href="#path-3"></use>
                </mask>
                <g id="Clip-9"></g>
                <path d="M5.4849,4.8022 C5.4849,2.6312 4.7409,1.3842 3.4219,1.3842 C2.1029,1.3842 1.3589,2.6312 1.3589,4.8022 C1.3589,6.9972 2.1029,8.2202 3.4219,8.2202 C4.7409,8.2202 5.4849,6.9972 5.4849,4.8022 M0.5069,4.8022 C0.5069,2.1762 1.5629,0.6042 3.4219,0.6042 C5.2809,0.6042 6.3359,2.1762 6.3359,4.8022 C6.3359,7.4282 5.2809,9.0002 3.4219,9.0002 C1.5629,9.0002 0.5069,7.4282 0.5069,4.8022" id="Fill-8" fill="#1D1D1B" mask="url(#mask-4)"></path>
            </g>
            <path d="M35.1118,8.86018 C36.0948,7.80518 37.0668,6.73718 38.0498,5.68218 C38.8658,4.79518 39.2608,4.07518 39.2608,3.51118 C39.2608,2.82818 38.8178,1.98818 37.5828,1.98818 C36.8388,1.98818 36.2508,2.49218 35.8798,2.88718 C35.7828,2.98418 35.6518,2.98418 35.5548,2.88718 L35.3158,2.66018 C35.2438,2.57618 35.2198,2.44418 35.3038,2.34818 C35.3038,2.34818 36.1548,1.17318 37.5828,1.17318 C39.2978,1.17318 40.1728,2.26418 40.1728,3.48718 C40.1728,4.54318 39.5018,5.32218 38.6738,6.21018 C37.9058,7.02518 37.1388,7.85318 36.3708,8.66818 L39.8968,8.66818 C40.0168,8.66818 40.1248,8.77618 40.1248,8.89618 L40.1248,9.22018 C40.1248,9.34018 40.0168,9.44818 39.8968,9.44818 L35.3398,9.44818 C35.2078,9.44818 35.1118,9.34018 35.1118,9.22018 L35.1118,8.86018 Z" id="Fill-11" fill="#1D1D1B"></path>
            <path d="M44.063,2.77958 L43.199,3.45158 C43.104,3.52358 43.007,3.53558 42.923,3.43958 L42.696,3.18758 C42.612,3.09158 42.66,2.98358 42.72,2.92358 L44.399,1.29258 L44.723,1.29258 C44.842,1.29258 44.938,1.40058 44.938,1.52058 L44.938,9.21958 C44.938,9.34058 44.842,9.44758 44.723,9.44758 L44.291,9.44758 C44.159,9.44758 44.063,9.34058 44.063,9.21958 L44.063,2.77958 Z" id="Fill-13" fill="#1D1D1B"></path>
            <path d="M56.7686,3.40318 C56.7686,2.50418 56.0736,1.89218 55.1256,1.89218 C54.2626,1.89218 53.5786,2.50418 53.5786,3.40318 C53.5786,4.14718 54.0586,4.72218 55.1736,4.83018 C56.2766,4.72218 56.7686,4.14718 56.7686,3.40318 M55.1496,8.84818 C56.1816,8.84818 56.9726,8.28418 56.9726,7.33718 C56.9726,6.59318 56.3126,5.83818 55.1736,5.71818 C54.0216,5.83818 53.3746,6.59318 53.3746,7.33718 C53.3746,8.26018 54.2026,8.84818 55.1496,8.84818 M53.9266,5.25018 L53.9266,5.21418 C53.3866,4.96318 52.6906,4.29118 52.6906,3.36718 C52.6906,2.04818 53.7346,1.17318 55.1616,1.17318 C56.6126,1.17318 57.6566,2.04818 57.6566,3.36718 C57.6566,4.29118 56.9606,4.96318 56.4206,5.21418 L56.4206,5.25018 C56.9846,5.49018 57.8726,6.22218 57.8726,7.25318 C57.8726,8.56018 56.8526,9.56818 55.1496,9.56818 C53.4946,9.56818 52.4756,8.56018 52.4756,7.25318 C52.4756,6.22218 53.3626,5.49018 53.9266,5.25018" id="Fill-15" fill="#1D1D1B"></path>
            <path d="M60.623,8.21268 L60.947,7.93668 C61.079,7.84068 61.175,7.86468 61.27,7.99668 C61.378,8.12868 62.026,8.82468 63.058,8.82468 C63.969,8.82468 64.785,8.27268 64.785,7.32468 C64.785,6.50968 64.149,5.75468 62.662,5.75468 L61.99,5.75468 C61.858,5.75468 61.762,5.68168 61.762,5.48968 L61.762,5.20268 C61.762,5.01068 61.822,4.93868 62.014,4.93868 L62.674,4.93868 C63.957,4.93868 64.581,4.27868 64.581,3.48668 C64.581,2.53968 63.861,1.96368 63.01,1.96368 C62.194,1.96368 61.703,2.44368 61.438,2.74368 C61.367,2.82768 61.247,2.87568 61.127,2.76768 L60.839,2.53968 C60.743,2.45568 60.755,2.31168 60.839,2.22768 C60.839,2.22768 61.703,1.17268 63.01,1.17268 C64.461,1.17268 65.48,2.02468 65.48,3.36768 C65.48,4.29068 64.785,5.01068 64.245,5.26268 L64.245,5.29768 C64.809,5.53868 65.684,6.20968 65.684,7.24068 C65.684,8.54868 64.677,9.56768 63.022,9.56768 C61.546,9.56768 60.875,8.80068 60.611,8.50068 C60.539,8.41668 60.527,8.28468 60.623,8.21268" id="Fill-17" fill="#1D1D1B"></path>
            <path d="M68.3755,8.86018 C69.3585,7.80518 70.3305,6.73718 71.3135,5.68218 C72.1295,4.79518 72.5245,4.07518 72.5245,3.51118 C72.5245,2.82818 72.0815,1.98818 70.8465,1.98818 C70.1025,1.98818 69.5145,2.49218 69.1435,2.88718 C69.0465,2.98418 68.9155,2.98418 68.8185,2.88718 L68.5795,2.66018 C68.5075,2.57618 68.4835,2.44418 68.5675,2.34818 C68.5675,2.34818 69.4185,1.17318 70.8465,1.17318 C72.5615,1.17318 73.4365,2.26418 73.4365,3.48718 C73.4365,4.54318 72.7655,5.32218 71.9375,6.21018 C71.1695,7.02518 70.4025,7.85318 69.6345,8.66818 L73.1605,8.66818 C73.2805,8.66818 73.3885,8.77618 73.3885,8.89618 L73.3885,9.22018 C73.3885,9.34018 73.2805,9.44818 73.1605,9.44818 L68.6035,9.44818 C68.4715,9.44818 68.3755,9.34018 68.3755,9.22018 L68.3755,8.86018 Z" id="Fill-19" fill="#1D1D1B"></path>
            <g id="Group-23" transform="translate(80.000000, 0.568180)">
                <mask id="mask-6" fill="white">
                    <use xlink:href="#path-5"></use>
                </mask>
                <g id="Clip-22"></g>
                <path d="M5.4956,4.8022 C5.4956,2.6312 4.7526,1.3842 3.4326,1.3842 C2.1136,1.3842 1.3706,2.6312 1.3706,4.8022 C1.3706,6.9972 2.1136,8.2202 3.4326,8.2202 C4.7526,8.2202 5.4956,6.9972 5.4956,4.8022 M0.5186,4.8022 C0.5186,2.1762 1.5746,0.6042 3.4326,0.6042 C5.2916,0.6042 6.3476,2.1762 6.3476,4.8022 C6.3476,7.4282 5.2916,9.0002 3.4326,9.0002 C1.5746,9.0002 0.5186,7.4282 0.5186,4.8022" id="Fill-21" fill="#1D1D1B" mask="url(#mask-6)"></path>
            </g>
            <path d="M93.7041,3.40318 C93.7041,2.50418 93.0091,1.89218 92.0611,1.89218 C91.1981,1.89218 90.5141,2.50418 90.5141,3.40318 C90.5141,4.14718 90.9941,4.72218 92.1091,4.83018 C93.2121,4.72218 93.7041,4.14718 93.7041,3.40318 M92.0851,8.84818 C93.1171,8.84818 93.9081,8.28418 93.9081,7.33718 C93.9081,6.59318 93.2481,5.83818 92.1091,5.71818 C90.9571,5.83818 90.3101,6.59318 90.3101,7.33718 C90.3101,8.26018 91.1381,8.84818 92.0851,8.84818 M90.8621,5.25018 L90.8621,5.21418 C90.3221,4.96318 89.6261,4.29118 89.6261,3.36718 C89.6261,2.04818 90.6701,1.17318 92.0971,1.17318 C93.5481,1.17318 94.5921,2.04818 94.5921,3.36718 C94.5921,4.29118 93.8961,4.96318 93.3561,5.21418 L93.3561,5.25018 C93.9201,5.49018 94.8081,6.22218 94.8081,7.25318 C94.8081,8.56018 93.7881,9.56818 92.0851,9.56818 C90.4301,9.56818 89.4111,8.56018 89.4111,7.25318 C89.4111,6.22218 90.2981,5.49018 90.8621,5.25018" id="Fill-24" fill="#1D1D1B"></path>
            <g id="Group-28" transform="translate(97.000000, 0.568180)">
                <mask id="mask-8" fill="white">
                    <use xlink:href="#path-7"></use>
                </mask>
                <g id="Clip-27"></g>
                <path d="M5.2119,6.3013 C5.2119,5.2583 4.4089,4.4303 3.4009,4.4303 C2.2859,4.4303 1.5059,5.2103 1.5059,5.2103 C1.3019,6.4093 1.7699,8.2083 3.4129,8.2083 C4.4199,8.2083 5.2119,7.3323 5.2119,6.3013 M4.5649,0.4483 C4.6839,0.4003 4.7799,0.4603 4.8279,0.5683 L4.9599,0.8563 C5.0199,1.0003 4.9719,1.1323 4.7439,1.2043 C4.2049,1.3843 2.0819,2.5713 1.6619,4.1903 C1.6619,4.1903 2.4539,3.6513 3.4849,3.6513 C4.8399,3.6513 6.0639,4.6583 6.0639,6.2533 C6.0639,7.7643 4.8519,9.0003 3.4129,9.0003 C1.4699,9.0003 0.6189,7.4883 0.6189,5.5813 C0.6189,2.3913 3.3529,0.9283 4.5649,0.4483" id="Fill-26" fill="#1D1D1B" mask="url(#mask-8)"></path>
            </g>
            <g id="Group-31" transform="translate(105.000000, 0.568180)">
                <mask id="mask-10" fill="white">
                    <use xlink:href="#path-9"></use>
                </mask>
                <g id="Clip-30"></g>
                <path d="M5.7915,4.8022 C5.7915,2.6312 5.0485,1.3842 3.7285,1.3842 C2.4095,1.3842 1.6665,2.6312 1.6665,4.8022 C1.6665,6.9972 2.4095,8.2202 3.7285,8.2202 C5.0485,8.2202 5.7915,6.9972 5.7915,4.8022 M0.8145,4.8022 C0.8145,2.1762 1.8705,0.6042 3.7285,0.6042 C5.5875,0.6042 6.6435,2.1762 6.6435,4.8022 C6.6435,7.4282 5.5875,9.0002 3.7285,9.0002 C1.8705,9.0002 0.8145,7.4282 0.8145,4.8022" id="Fill-29" fill="#1D1D1B" mask="url(#mask-10)"></path>
            </g>
        </g>
    </g>
</svg>